<svg width="25" height="24" viewBox="0 0 25 24" fill="none" xmlns="http://www.w3.org/2000/svg">
<path fill-rule="evenodd" clip-rule="evenodd" d="M5.5 12.0002C5.50024 8.66068 7.85944 5.78639 11.1348 5.1351C14.4102 4.48382 17.6895 6.23693 18.9673 9.32231C20.2451 12.4077 19.1655 15.966 16.3887 17.8212C13.6119 19.6764 9.91127 19.3117 7.55 16.9502C6.23728 15.6373 5.49987 13.8568 5.5 12.0002Z" stroke="#1A1A1A" stroke-linecap="round" stroke-linejoin="round"/>
<path d="M9.52151 14.2706C9.32621 14.4658 9.32615 14.7824 9.52138 14.9777C9.7166 15.173 10.0332 15.1731 10.2285 14.9778L9.52151 14.2706ZM12.8535 12.3538C13.0488 12.1586 13.0488 11.842 12.8536 11.6467C12.6584 11.4514 12.3418 11.4514 12.1465 11.6466L12.8535 12.3538ZM12.1463 11.6468C11.9511 11.8421 11.9512 12.1587 12.1466 12.3539C12.3419 12.5491 12.6585 12.549 12.8537 12.3536L12.1463 11.6468ZM15.4777 9.72763C15.6729 9.53229 15.6728 9.21571 15.4774 9.02052C15.2821 8.82533 14.9655 8.82545 14.7703 9.02079L15.4777 9.72763ZM12.8535 11.6466C12.6582 11.4514 12.3416 11.4514 12.1464 11.6467C11.9512 11.842 11.9512 12.1586 12.1465 12.3538L12.8535 11.6466ZM14.7715 14.9778C14.9668 15.1731 15.2834 15.173 15.4786 14.9777C15.6738 14.7824 15.6738 14.4658 15.4785 14.2706L14.7715 14.9778ZM12.1464 12.3537C12.3416 12.549 12.6582 12.5491 12.8535 12.3538C13.0488 12.1586 13.0488 11.842 12.8536 11.6467L12.1464 12.3537ZM10.2286 9.02072C10.0334 8.82542 9.71681 8.82536 9.52151 9.02059C9.32621 9.21581 9.32615 9.53239 9.52138 9.72769L10.2286 9.02072ZM9.875 14.6242L10.2285 14.9778L12.8535 12.3538L12.5 12.0002L12.1465 11.6466L9.52151 14.2706L9.875 14.6242ZM12.5 12.0002L12.8537 12.3536L15.4777 9.72763L15.124 9.37421L14.7703 9.02079L12.1463 11.6468L12.5 12.0002ZM12.5 12.0002L12.1465 12.3538L14.7715 14.9778L15.125 14.6242L15.4785 14.2706L12.8535 11.6466L12.5 12.0002ZM12.5 12.0002L12.8536 11.6467L10.2286 9.02072L9.875 9.37421L9.52138 9.72769L12.1464 12.3537L12.5 12.0002Z" fill="#1A1A1A"/>
</svg>
