<svg width="48" height="48" viewBox="0 0 48 48" fill="none" xmlns="http://www.w3.org/2000/svg">
<path d="M23.0984 15.8037H17.4119C15.5276 15.8037 14 17.3312 14 19.2155V30.5882C14 32.4725 15.5276 34 17.4119 34H28.7849C30.6692 34 32.1968 32.4725 32.1968 30.5882L32.1968 24.9018M19.6865 28.3136L23.8244 27.4799C24.044 27.4356 24.2457 27.3274 24.4041 27.1689L33.6671 17.9012C34.1112 17.4568 34.1109 16.7366 33.6664 16.2926L31.7042 14.3326C31.2599 13.8889 30.54 13.8892 30.0961 14.3333L20.8321 23.6021C20.674 23.7602 20.566 23.9615 20.5217 24.1807L19.6865 28.3136Z" stroke="#808080" stroke-width="2" stroke-linecap="round" stroke-linejoin="round"/>
</svg>
